<svg version="1.2" xmlns="http://www.w3.org/2000/svg" viewBox="0 0 1300 600" width="1300" height="600">
	<title>1918556-svgnew-svg</title>
	<style>
		.s0 { fill: #2F4F4F } 
	</style>
	<g id="Layer">
		<path id="Layer" class="s0" d="m681.8 10.1c6.6 3.3 9.7 8.7 9.7 16.9 0 8.4-2.7 12.9-9.9 16.5l-5 2.5h-188.1-188.1l-5-2.5c-6.7-3.4-9.7-8-10.2-15.9-0.3-5.4 0-6.6 2.6-10.7 2-3.1 4.5-5.3 7.4-6.8l4.4-2.1h189 188.9z"/>
		<path id="Layer" fill-rule="evenodd" class="s0" d="m182 74c30 0.4 141.3 1.3 247.5 2 106.2 0.6 220.7 1.5 254.5 1.9l61.5 0.7 5.9 2.8c8 3.9 19.8 15.4 29.4 28.5 16.9 23.3 71 92.2 74.3 94.7 0.8 0.6 48.8 3.7 122.9 7.8 66.8 3.7 127.8 7.2 135.5 7.7 7.7 0.5 18.6 1 24.3 1h10.3l4 3.6c2.1 1.9 6 7 8.5 11.2 7.8 12.9 15.1 23.5 18.1 26.3 1.9 1.8 5.9 3.6 11.8 5.3 20.6 6 29.7 13 37.7 29.2 3.6 7.2 4.3 9.8 4.6 15.7l0.4 7.1-5.6 6.4c-6.8 7.8-7.3 11.4-2.7 17.7 5.7 7.9 10.3 9.4 19.9 6.5 8.2-2.6 10.7-2 14.9 3.6 1.5 2.1 8.7 9.7 16 16.9 10.2 10.2 13.3 14 13.8 16.6 0.5 2.5-0.4 6.2-3.4 14.6-4.8 13.9-7.3 17.6-13.1 20.3-10 4.5-10.9 5.2-15.4 12-3.1 4.6-5.4 7.1-7.2 7.5-2.4 0.6-19.1-0.3-20.4-1.1-0.4-0.2-12.7-29.5-27.5-65l-26.8-64.5-85.1 0.2-85.1 0.3-49.1 65-49 65-247.1 0.3-247.1 0.2-42.7-65c-23.5-35.8-43.1-65.3-43.6-65.6-0.4-0.2-12.8 0-27.6 0.5-14.7 0.6-43.7 1.5-64.3 2.1-20.6 0.6-40.7 1.3-44.6 1.6l-7.1 0.5-80.8 126.8h-22.9l-22.9 0.1-6.4-3.2c-3.5-1.7-8.6-5.2-11.3-7.7-7.2-6.7-9.5-12.7-12-30.9-1.1-8.4-2.4-16-2.7-17-1.1-3-3.5-5.2-5.8-5.2-4.2 0-8.5-6.8-8.5-13.6 0-3.9 2.9-7.4 6.1-7.4 3.4 0 5.7-1.8 6.4-5.2 1.1-5.1 3.3-8.6 6.3-10.2 4.3-2.2 17.7-3.8 28.7-3.5l10 0.4 0.7-19.5c1.9-55.2 5-117.3 6.8-134.5 0.6-5.5 1.9-13.4 3-17.5 3.4-13.6 6-41.2 6-64.6 0-10.9 0.2-12.4 2.3-15.5 5.2-7.8 18.2-13.4 32.9-14.2 4.5-0.3 32.8-0.1 62.8 0.3zm-41 35.6c0 0.8-16 110.5-16.6 114.1l-0.6 3.3h177.2v-118h-80c-44 0-80 0.3-80 0.6zm209 83.1l13.7 16.7 13.8 16.6h165.5v-115l-74.3-0.3c-40.8-0.1-84.2-0.3-96.5-0.5l-22.2-0.2zm246.1-78.9c-0.2 0.1-0.1 15.2 0.3 33.4l0.7 33.3 12.1 23.5c6.6 12.9 12.5 24.1 13 24.8 0.8 0.9 16.7 1.2 75.7 1l74.6-0.3 0.3-21.7 0.2-21.7 28-0.6-25.1-35c-13.8-19.3-25.7-35.7-26.4-36.5-1.2-1.3-10.5-1.4-77.2-0.9-41.7 0.3-76 0.6-76.2 0.7z"/>
		<path id="Layer" fill-rule="evenodd" class="s0" d="m1091.5 335.7c45.3 4.1 85.5 31.6 106.1 72.6 4.4 8.6 8.8 22 11.1 33.4 2.4 12.2 2.4 36.8 0 48.3-5.7 26.9-17.4 48.8-36.2 67.5-18 18.1-37.3 28.8-63.5 35.2-9.2 2.3-12.7 2.7-27.5 2.7-12.8 0.1-19.1-0.4-25.5-1.7-37.8-8-68.9-30-87.6-61.9-30.1-51.1-21.8-116.3 19.9-158 21.1-21.1 46.2-33.3 76.4-37.3 10.8-1.4 17.7-1.6 26.8-0.8zm-4.8 70c-0.4 3.8-0.7 12-0.7 18.3v11.5l12.8 6 13.1-12.7c7.2-7 13.1-13.2 13.1-13.6 0-1.2-7.5-6.5-13.9-9.6-5.3-2.7-17.7-6.4-21.7-6.5-1.9-0.1-2.2 0.6-2.7 6.6zm-22.1-4.7c-8 2-18.9 7.2-24.1 11.4l-3 2.5 12.9 12.9 12.9 13 5.1-2.4c2.8-1.3 5.6-2.4 6.2-2.4 1.4 0 2.4-10.2 2.4-25.3 0-13.7 0.7-13.1-12.4-9.7zm41.1 49c0.1 0.8 0.8 3.6 1.5 6.2 1.1 4.4 1.5 4.8 4.2 4.8 4.1 0 30.4-2 34.3-2.6l3.1-0.5-1.4-5.9c-2-8.6-5.6-16.9-10.4-23.9l-4.1-6.2-13.7 13.3c-7.5 7.3-13.6 14-13.5 14.8zm-78.8-23.8c-6.6 9.1-11.4 20.9-12.5 30.9l-0.7 6.1 10.9-0.7c6-0.3 14.6-0.8 19.1-1.1l8.3-0.6 1.1-4.1c0.6-2.3 1.6-5.1 2.4-6.2 1.1-1.9 0.2-3.1-11.2-15.3-6.9-7.2-12.9-13.2-13.4-13.2-0.5 0-2.3 1.9-4 4.2zm98.8 43.4c-10 0.9-18.2 1.6-18.2 1.7 0 0.1-1.1 2.4-2.3 5l-2.3 4.9 14.2 14.9c7.8 8.2 14.5 14.9 14.9 14.9 0.5 0 3-3.2 5.6-7.1 5.4-8.2 10.1-20.8 11-29.8l0.7-6.1h-2.7c-1.5 0-10.9 0.7-20.9 1.6zm-97.5 2.1c-16.3 0.7-15.5 0-12.7 10.8 2.7 10.3 12.5 28.5 15.4 28.5 0.9 0 26.1-29.3 26.1-30.3 0-0.2-0.9-2.5-2-5.1l-2.1-4.6h-5.2c-2.9 0-11.6 0.3-19.5 0.7zm22.7 31.3l-13 15.5 2.8 2.2c7.2 5.8 21.4 11.5 31.7 12.8l5.6 0.7-0.1-9.3c-0.1-5.2-0.4-14.8-0.8-21.3l-0.6-11.9-4.7-1.4c-2.6-0.7-5-1.8-5.3-2.4-0.4-0.5-1.1-0.9-1.6-0.7-0.5 0.2-6.8 7.3-14 15.8zm39-13l-3.7 1.3 0.5 15.1c0.2 8.3 0.6 17.9 0.9 21.4l0.6 6.3 3.6-0.6c7.4-1.3 16.9-4.7 23.2-8.5 12-7.3 12.5-5-4.5-22-8.3-8.3-15.4-14.9-16-14.7-0.5 0.3-2.6 1-4.6 1.7z"/>
		<path id="Layer" fill-rule="evenodd" class="s0" d="m268 336c31.2 3.8 56.1 15.9 78.1 37.9 22.8 22.8 35 49 37.8 80.9 5.2 59.1-31.2 114.9-87.4 134-15.6 5.3-24.2 6.7-42.5 6.6-23.6 0-39.1-3.7-59.6-14.3-56.8-29.2-83.7-95.5-63.7-156.6 12.4-38 43.7-69.3 82.3-82.5 15.4-5.2 39.5-7.9 55-6zm-8 77.7c0 8.2-0.3 16.5-0.6 18.5-0.5 3-0.3 3.8 0.9 3.8 0.8 0 4 1.3 7 2.9l5.5 2.9 13.3-13.4c15.2-15.2 14.9-13.2 2.9-20.3-7.8-4.6-19.6-8.7-26.3-9l-2.7-0.1zm-27-11.2c-7.7 2.6-20.5 10.1-20.5 12.1 0 0.6 5.4 6.7 12 13.7l12 12.7 4.9-2.5c2.7-1.4 5.8-2.5 6.8-2.5 1.6 0 1.8-0.9 1.8-6.3 0-3.5 0.3-11.9 0.7-18.7l0.6-12.3-5.3 0.6c-2.9 0.4-8.8 1.8-13 3.2zm51.1 40.8l-5.4 5.5 3.8 12.2 4-0.1c7.2 0 34.5-2.5 35.2-3.2 2-2.1-4.6-20.1-10.9-29.3l-4.2-6.3-8.5 7.9c-4.8 4.3-11 10.3-14 13.3zm-84.8-15.1c-6.5 9.6-9.9 18.8-11.7 31.1l-0.5 3.9 11.2-0.6c6.2-0.4 14.9-0.9 19.4-1.2l8.2-0.6 0.7-3.1c0.4-1.8 1.4-4.6 2.2-6.4l1.5-3.2-12.4-13c-6.8-7.1-12.9-13-13.4-13-0.6-0.1-2.9 2.7-5.2 6.1zm101.2 41.3c-8.8 0.8-16.7 1.5-17.5 1.5-1.3 0-6 8.3-6 10.5 0 0.4 6.4 7.2 14.2 15.2l14.3 14.5 3.3-3.9c6.4-7.3 11.9-21 13.7-34.1l0.7-5.2h-3.4c-1.8 0-10.5 0.7-19.3 1.5zm-98.8 2.2l-13.7 0.6v2.6c0 8.2 7.1 25.4 13.4 32.6 3 3.5 3.6 3.8 4.9 2.5 1.5-1.6 21.4-25.5 23.5-28.1 1.1-1.4 0.9-2.5-1-6.3l-2.2-4.6h-5.6c-3.1 0-11.8 0.3-19.3 0.7zm23.3 30.9c-15.5 18.2-15.4 16.6-0.5 24 8.3 4.1 19.5 7.3 25.4 7.4 2.4 0 2.4 0 1.8-8.3-0.4-4.5-0.7-14-0.7-21 0-11.3-0.2-12.8-1.8-13.3-1.3-0.4-10-3.8-10.9-4.3-0.1-0.1-6.1 6.9-13.3 15.5zm39.2-12.9l-4.3 1.8 0.7 21c0.4 11.6 0.8 21.2 1 21.4 0.2 0.2 3.6-0.4 7.7-1.3 11-2.5 28.7-11.5 28.7-14.6 0-1.1-27.9-30-28.9-30-0.3 0-2.5 0.8-4.9 1.7z"/>
		<path id="Layer" class="s0" d="m886.8 462.1c5.6 1.1 9.8 4.1 12.2 8.9 2.3 4.6 2.6 11.9 0.6 15.8-1.9 3.6-6.5 7.8-9.9 9.1-2 0.8-69.7 1.1-222.5 1.1-212.1 0-219.9-0.1-223.2-1.9-12.7-6.7-13.3-23.7-1.2-30.9l4.7-2.7 217.5-0.1c119.6-0.1 219.4 0.2 221.8 0.7z"/>
	</g>
</svg>