<svg version="1.2" xmlns="http://www.w3.org/2000/svg" viewBox="0 0 1300 600" width="1300" height="600">
	<title>1299198-svg</title>
	<style>
		.s0 { fill: #000080 } 
	</style>
	<g id="Layer">
		<path id="Layer" fill-rule="evenodd" class="s0" d="m390.3 174.8l7.8 4.6 18.2-1.2c63.8-4.3 72.3-4.6 126.2-4.6 44.7-0.1 58.9 0.3 75.5 1.7 58 5 97.6 14.2 132 30.5 36.3 17.2 132.6 70.4 151.7 83.9 11.7 8.2 11.9 8.3 37.3 8.3 73.9 0.1 136.4 7.1 218.1 24.5 81.4 17.4 117.4 32.1 126.7 51.6 3.7 7.7 6.5 24.8 5.9 35.9-0.7 10.9-3 30.5-5.2 43.2-1.4 7.9-1.4 10.4 0 24.7 1.4 14.2 1.4 16.3 0.1 19.5-2.7 6.4-7.6 12.5-12.2 15.2-5.4 3.1-19.5 5.7-39.9 7.3-7.7 0.6-16.3 1.3-19.2 1.6-2.8 0.3-5.4 0.2-5.7-0.3-0.2-0.4 0.2-3.4 1-6.7 2.1-9.3 2.8-24.9 1.5-35-3.4-26.2-14.5-48.1-33.7-66.4-14.3-13.7-28.6-21.6-49.4-27.4-6.3-1.7-10.4-2.1-25.5-2.1-16.3 0-18.9 0.3-27.7 2.6-38.5 10.4-68.1 40-78.6 78.6-2.4 8.8-2.6 11.3-2.6 27.7 0.1 14.9 0.4 19.3 2.1 25.3 1.1 4 1.7 7.4 1.4 7.6-0.3 0.2-135.1 0.7-299.5 1.1l-298.9 0.7 0.7-3.8c3.3-19.6 3.2-43.1-0.3-56.5-10.4-40.3-39.5-70.1-79-80.7-8.5-2.3-11.6-2.6-27.1-2.6-15.3-0.1-18.6 0.2-26.5 2.3-51.2 13.4-84.6 57.6-83.3 110.1l0.3 12.5-9.5-0.3c-15.3-0.5-52.4-3.1-67-4.7-38.1-4.3-62.5-10.7-67.4-17.6-8.1-11.6-11.3-15.4-16.8-20l-6.3-5.2-2.1-11.6c-1.5-8.1-1.8-12.7-1.3-15.3 0.6-2.4 0.4-6.6-0.6-12-2-11.1-1.9-18.5 0.5-29.8 3.2-15.8 6.7-23.3 13.5-28.4l3.3-2.6 0.4-19.2c0.3-18.3 0.5-19.6 3.1-25.9 1.5-3.6 2.7-7.6 2.7-8.8 0-2.7-1.8-6.3-3.6-7.4-2.7-1.5-0.9-6.7 4.7-13.8l2.8-3.6 19.3-0.7c21.6-0.7 41.5-2.8 55.8-5.6 5.2-1.1 15.4-2.4 22.5-3 18-1.5 26.2-3.9 41-12 13.7-7.5 73.3-32 121.5-50 37.4-14 51.7-19.6 54.7-21.5 1.8-1.2 2.3-2.8 2.8-9.4l0.7-7.9 6.2-1.7c3.3-1 6.6-1.9 7.1-2 4.3-1.3 9.3 0.3 19.8 6.3zm164.1 19.7l-21.9-0.1c-33.8-0.2-64.7 1.7-101.5 6.2-55.1 6.8-97.7 18.8-121.6 34.2-8.1 5.2-9.9 9.6-9.9 23.2 0 8.4 0.3 10.1 2.8 14.7 5 9.6 15.5 19.4 22.9 21.4 11.6 3.1 36.3 5.3 76.3 6.9 33.8 1.4 167.4 3.8 169.4 3.2 0.9-0.4 1.1-1.5 0.7-4.1-0.4-2-4-25-8.2-51.1-4.1-26.1-7.9-49.1-8.3-51zm52.2 0.9l-17.6-0.7v2.5c0 6.8 31.4 101.7 35.3 106.6 0.7 0.9 19.7 1.2 91.1 1l90.1-0.3-0.2-3c-1.5-17.8 0.7-22.8 11.9-26.6 2.9-1 5.3-2.4 5.3-3.1 0-1.5-16.7-13.1-37-25.5-18-11.1-45.6-25.3-56.7-29.2-17.7-6.2-52.1-13.5-87.4-18.6-9.4-1.3-25.1-2.7-34.8-3.1z"/>
		<path id="Layer" fill-rule="evenodd" class="s0" d="m294 389.4c15.8 0.3 24.6 2.1 37.5 7.4 47.1 19.6 72.9 71.6 60.2 121.3-14.4 55.7-72.2 89.1-127.8 73.8-9.6-2.6-24.4-9.7-32.3-15.3-30.9-22-47.7-60.6-42.6-97.8 6.2-46.3 40-80.5 88-89.2 1.4-0.2 9-0.3 17-0.2zm-18.5 29c-14.7 3.4-27.3 10.6-38.2 21.9-8.6 9-13.3 16.7-17.3 28.5-9.1 27.3-1.9 56.7 18.9 77.2 11.9 11.7 26.9 18.9 44.1 21.1 42.4 5.4 81.2-27.3 83.7-70.6 2-34.8-19.7-66-53.2-76.5-8.9-2.8-29-3.7-38-1.6z"/>
		<path id="Layer" class="s0" d="m277.8 431.1c2.2-0.1 2.2 0 2.2 14.8 0 9.9-0.4 15.2-1.1 15.7-1.2 0.7-21.9-19.3-21.9-21.2 0-1.1 7.9-5.4 14.5-7.8 2.2-0.8 5-1.5 6.3-1.5z"/>
		<path id="Layer" class="s0" d="m304.9 431c4.4 0 21.1 7.4 21.1 9.4 0 1.9-20.7 21.9-21.9 21.2-0.7-0.5-1.1-5.8-1.1-15.7 0-13.9 0.1-14.9 1.9-14.9z"/>
		<path id="Layer" class="s0" d="m343.8 457c1 0 8.2 17.1 8.4 20l0.3 3.5-14 0.2c-7.8 0.2-14.7-0.1-15.5-0.7-1.2-0.8 0.6-3.1 9.5-12 6-6 11.1-11 11.3-11z"/>
		<path id="Layer" class="s0" d="m239.4 458c0.6 0 5.9 4.7 11.6 10.5 8.5 8.5 10.2 10.7 9 11.5-1.9 1.2-27 1.3-28.9 0.1-1.6-1-0.6-4.9 4.1-15.4 1.7-3.7 3.6-6.7 4.2-6.7z"/>
		<path id="Layer" class="s0" d="m291.5 468c2 0 2.5 0.5 2.5 2.4 0 2.5-1.5 3.6-3.7 2.9-0.7-0.3-1.3-1.6-1.3-2.9 0-1.9 0.5-2.4 2.5-2.4z"/>
		<path id="Layer" class="s0" d="m291.5 484c7.9 0 11.2 8.4 5.6 14.1-3.8 3.8-7.4 3.8-11.2 0-3.7-3.8-3.9-8.2-0.4-11.6 1.6-1.7 3.5-2.5 6-2.5z"/>
		<path id="Layer" class="s0" d="m272 490.5c1.8 2.1 0.5 4.7-2.2 4.3-2.6-0.3-3.7-3.6-1.6-4.9 1.8-1.2 2.4-1.1 3.8 0.6z"/>
		<path id="Layer" class="s0" d="m314.8 489.9c2.1 1.3 1 4.6-1.6 4.9-2.7 0.4-4-2.2-2.2-4.3 1.4-1.7 2-1.8 3.8-0.6z"/>
		<path id="Layer" class="s0" d="m229.8 504h15.6c11.9 0 15.6 0.3 15.6 1.3 0 0.7-4.7 6-10.5 11.7l-10.6 10.5-1.9-2.5c-2.2-2.8-6.4-12.9-7.5-17.8z"/>
		<path id="Layer" class="s0" d="m337.5 504c12.3 0 15.5 0.3 15.5 1.3 0 3.9-6.9 19.9-9.1 21.3-1.3 0.7-21.9-19.3-21.9-21.3 0-1 3.7-1.3 15.5-1.3z"/>
		<path id="Layer" class="s0" d="m293.5 514c0 1.6-0.6 2.6-1.8 2.8-1.9 0.4-3.2-2-2.3-4.4 0.9-2.5 4.1-1.3 4.1 1.6z"/>
		<path id="Layer" class="s0" d="m278.7 523c1 0 1.3 3.5 1.3 14.8 0 8.2-0.3 15.1-0.6 15.5-1.4 1.4-22.4-7.1-22.4-9 0-0.4 4.6-5.4 10.2-11 5.7-5.7 10.8-10.3 11.5-10.3z"/>
		<path id="Layer" class="s0" d="m304.3 523c1.2 0 21.7 19.9 21.7 21.2 0 2-20.1 10.4-22.1 9.2-0.5-0.3-0.9-7.2-0.9-15.5 0-11.4 0.3-14.9 1.3-14.9z"/>
		<path id="Layer" fill-rule="evenodd" class="s0" d="m1104 389.4c17.2 0.4 26.6 2.4 40.6 9 22.7 10.8 39.2 26.9 50 49.1 7 14.4 9.6 26.1 9.8 43.5 0.1 19.6-2.5 31.1-10.9 48-5.4 10.8-11.4 18.7-21.2 28.1-17.3 16.4-36.5 25.3-61 28-40.8 4.6-82.1-17.7-101.5-54.8-9-17.1-12.4-33-11.5-53.1 1.2-26.3 10.3-47.4 28.9-66.8 15.7-16.4 36.5-27.2 59.3-30.7 1.7-0.3 9.5-0.4 17.5-0.3zm0 28c-8.3-0.3-14.5 0.1-18.5 1-18.3 4.2-33 13.6-43.9 28-10.3 13.5-14.5 25.2-15.3 42.2-0.7 14.3 1.2 23.5 7.7 36.9 16.7 34.6 56.8 50.8 93.2 37.5 19.6-7.2 36.2-23 43.8-42 4.3-10.4 5.4-16.7 5.4-29 0-21-6.7-37.3-21.4-52.1-9.7-9.8-18.6-15.5-30.5-19.5-6.6-2.2-10.2-2.7-20.5-3z"/>
		<path id="Layer" class="s0" d="m1090 445.9c0 9.9-0.4 15.2-1.1 15.7-1.2 0.7-21.9-19.3-21.9-21.1 0-1.4 6.5-5.1 13.2-7.5 10.3-3.6 9.8-4.2 9.8 12.9z"/>
		<path id="Layer" class="s0" d="m1113 430.8l3.8 0.7c4.5 0.8 16.8 6.3 18.4 8.2 0.9 1.2-0.8 3.4-9.3 11.9-5.7 5.7-10.9 10.4-11.6 10.4-1 0-1.3-3.7-1.3-15.6z"/>
		<path id="Layer" class="s0" d="m1049.2 456.7l11.2 11.2c8.9 9 10.8 11.3 9.6 12.1-0.8 0.5-7.7 1-15.3 1-11.5 0-13.9-0.3-14.4-1.5-0.7-1.9 3-12.4 6.4-18.4z"/>
		<path id="Layer" class="s0" d="m1153.5 458.3c3.2 1.1 10.6 20.4 8.3 21.9-1.8 1.1-27 1-28.8-0.2-1.2-0.8 0.5-3 9-11.5 5.8-5.8 10.9-10.4 11.5-10.2z"/>
		<path id="Layer" class="s0" d="m1103.8 470.6c0.4 2.6-2 3.7-4.3 2.1-1-0.8-1.4-1.9-0.9-3 0.9-2.5 4.8-1.8 5.2 0.9z"/>
		<path id="Layer" class="s0" d="m1109.6 490.7c1.4 5.3-4.6 11.3-9.9 9.9-6.6-1.6-8.9-9.5-4.2-14.1 4.7-4.8 12.5-2.5 14.1 4.2z"/>
		<path id="Layer" class="s0" d="m1081.9 490.4c1.7 2 0.2 4.8-2.3 4.4-2.4-0.3-3.4-3.7-1.4-4.9 1.8-1.2 2.4-1.1 3.7 0.5z"/>
		<path id="Layer" class="s0" d="m1123 489c1.5 0 3.2 3 2.6 4.5-0.3 0.8-1.5 1.5-2.6 1.5-2.5 0-3.7-2.5-2-4.5 0.7-0.8 1.6-1.5 2-1.5z"/>
		<path id="Layer" class="s0" d="m1039.8 504h15.6c11.9 0 15.6 0.3 15.6 1.3 0 2.1-20.6 22-22 21.2-1.7-1.1-7.7-14.2-8.5-18.8z"/>
		<path id="Layer" class="s0" d="m1147.6 504h15.6l-0.7 3.2c-1.3 6.1-7.8 19.8-9.3 19.8-1.3 0-21.2-20.5-21.2-21.7 0-1 3.7-1.3 15.6-1.3z"/>
		<path id="Layer" class="s0" d="m1103.8 513.8c0.4 2.8-2.4 4-4.5 1.9-1.4-1.3-1.4-1.9-0.3-3.2 1.8-2.2 4.4-1.5 4.8 1.3z"/>
		<path id="Layer" class="s0" d="m1088.7 523c1 0 1.3 3.5 1.3 14.9 0 8.3-0.4 15.2-0.9 15.5-2.1 1.3-22.1-7-22.1-9.2 0-0.4 4.6-5.3 10.2-10.9 5.7-5.7 10.8-10.3 11.5-10.3z"/>
		<path id="Layer" class="s0" d="m1114.3 523c1.3 0 21.7 20 21.7 21.3 0 1.5-19.1 9.7-22.7 9.7-0.2 0-0.3-7-0.3-15.5 0-11.8 0.3-15.5 1.3-15.5z"/>
	</g>
</svg>